<svg xmlns="http://www.w3.org/2000/svg" width="222.66" height="50" viewBox="0 0 222.66 50"><defs><style>.cls-1{fill:#5a189a;}.cls-2{fill:#43aa8b;}.cls-3{fill:#14746f;}.cls-4{fill:#fa0;}.cls-5{fill:#d80032;}.cls-6{fill:gray;}</style></defs><g id="Capa_2" data-name="Capa 2"><g id="Capa_1-2" data-name="Capa 1"><polygon class="cls-1" points="24.75 25 24.75 50 49.75 50 24.75 25"/><path class="cls-2" d="M0,25V50A12.5,12.5,0,0,0,12.5,37.5,12.5,12.5,0,0,0,0,25Z"/><path class="cls-3" d="M24.75,25V0a12.5,12.5,0,0,0,0,25Z"/><path class="cls-4" d="M24.87,25.12h-.25V12.74h.25A12.38,12.38,0,0,0,37.25.37c0-.08,0-.16,0-.25H49.62V.37A24.75,24.75,0,0,1,24.87,25.12Z"/><circle class="cls-5" cx="43.5" cy="31.25" r="6.25"/><path class="cls-6" d="M74.6,15.39h1.08v9.24h5.7v.93H74.6Z"/><path class="cls-6" d="M82.93,16a.71.71,0,0,1-.22-.53.66.66,0,0,1,.22-.5.72.72,0,0,1,.54-.22A.76.76,0,0,1,84,15a.69.69,0,0,1,.21.5A.76.76,0,0,1,84,16a.77.77,0,0,1-.54.22A.76.76,0,0,1,82.93,16Zm0,1.89h1v7.64h-1Z"/><path class="cls-6" d="M90.88,25.09a2,2,0,0,1-.72.4,2.73,2.73,0,0,1-.9.14,2.23,2.23,0,0,1-1.65-.58A2.2,2.2,0,0,1,87,23.41V18.79H85.66v-.87H87V16.25h1v1.67h2.32v.87H88.06v4.56a1.43,1.43,0,0,0,.34,1,1.28,1.28,0,0,0,1,.36,1.88,1.88,0,0,0,.62-.11,1.28,1.28,0,0,0,.51-.29Z"/><path class="cls-6" d="M96.57,25.09a1.8,1.8,0,0,1-.72.4,2.63,2.63,0,0,1-.89.14,2,2,0,0,1-2.24-2.22V18.79H91.36v-.87h1.36V16.25h1v1.67h2.33v.87H93.75v4.56a1.44,1.44,0,0,0,.35,1,1.27,1.27,0,0,0,1,.36,1.83,1.83,0,0,0,.61-.11,1.4,1.4,0,0,0,.52-.29Z"/><path class="cls-6" d="M98.45,14.78h1V25.56h-1Z"/><path class="cls-6" d="M109,22.06h-6.39a2.7,2.7,0,0,0,.91,1.92,3,3,0,0,0,2.09.74,3.29,3.29,0,0,0,1.31-.26,2.82,2.82,0,0,0,1-.75l.58.67a3.13,3.13,0,0,1-1.27.93,4.57,4.57,0,0,1-3.76-.18,3.58,3.58,0,0,1-1.42-1.39,3.93,3.93,0,0,1-.5-2,4.15,4.15,0,0,1,.48-2,3.56,3.56,0,0,1,1.34-1.38,3.72,3.72,0,0,1,1.91-.49,3.66,3.66,0,0,1,1.9.49,3.51,3.51,0,0,1,1.32,1.38,4.09,4.09,0,0,1,.48,2Zm-5.54-2.61a2.72,2.72,0,0,0-.85,1.84H108a2.81,2.81,0,0,0-.85-1.84,2.64,2.64,0,0,0-1.87-.71A2.59,2.59,0,0,0,103.47,19.45Z"/><path class="cls-6" d="M117,16.38h-7.2V12.13h19.61v4.25h-7.21V34.64H117Z"/><path class="cls-6" d="M147.58,19a7.67,7.67,0,0,1,2,5.73v9.9h-5V25.51a4.5,4.5,0,0,0-.9-3.07,3.27,3.27,0,0,0-2.6-1,4,4,0,0,0-3,1.18,4.85,4.85,0,0,0-1.13,3.49v8.55h-5V10.78h5v8.36a6.9,6.9,0,0,1,2.41-1.53,8.87,8.87,0,0,1,3.09-.53A7.15,7.15,0,0,1,147.58,19Z"/><path class="cls-6" d="M154.35,14.13a2.72,2.72,0,0,1,0-4,3.62,3.62,0,0,1,4.5,0,2.47,2.47,0,0,1,.87,1.93,2.73,2.73,0,0,1-.87,2.07,3.13,3.13,0,0,1-2.25.82A3.21,3.21,0,0,1,154.35,14.13Zm-.26,3.21h5v17.3h-5Z"/><path class="cls-6" d="M179.47,19a7.67,7.67,0,0,1,2,5.73v9.9h-5V25.51a4.5,4.5,0,0,0-.9-3.07,3.29,3.29,0,0,0-2.6-1,4,4,0,0,0-3,1.18,4.85,4.85,0,0,0-1.13,3.49v8.55h-5V17.34h4.79v2A6.67,6.67,0,0,1,171,17.68a8.58,8.58,0,0,1,3.25-.6A7.15,7.15,0,0,1,179.47,19Z"/><path class="cls-6" d="M204,17.34v14.4q0,4.75-2.47,7.08t-7.24,2.31a17.92,17.92,0,0,1-4.75-.61,10.43,10.43,0,0,1-3.73-1.77l2-3.6a8.13,8.13,0,0,0,2.77,1.43,11,11,0,0,0,3.34.53,5.45,5.45,0,0,0,3.84-1.17A4.7,4.7,0,0,0,199,32.39v-.74a7,7,0,0,1-5.47,2.15,9.25,9.25,0,0,1-4.35-1A8,8,0,0,1,186,29.81a8.22,8.22,0,0,1-1.15-4.37A8.24,8.24,0,0,1,186,21.07a8,8,0,0,1,3.14-2.94,9.14,9.14,0,0,1,4.35-1.05,6.85,6.85,0,0,1,5.72,2.48V17.34Zm-6.22,11.17a4,4,0,0,0,1.27-3.07,4,4,0,0,0-1.27-3.07,4.61,4.61,0,0,0-3.26-1.17,4.69,4.69,0,0,0-3.28,1.17A4,4,0,0,0,190,25.44a3.94,3.94,0,0,0,1.29,3.07,4.7,4.7,0,0,0,3.28,1.18A4.61,4.61,0,0,0,197.79,28.51Z"/><path class="cls-6" d="M210.28,34.36A11.15,11.15,0,0,1,207,33l1.67-3.6a10.63,10.63,0,0,0,2.8,1.2,11.34,11.34,0,0,0,3.21.47c2.13,0,3.19-.52,3.19-1.57a1.12,1.12,0,0,0-.87-1.07,13.28,13.28,0,0,0-2.67-.54,26.43,26.43,0,0,1-3.5-.74,5.48,5.48,0,0,1-2.4-1.48,4.22,4.22,0,0,1-1-3,4.76,4.76,0,0,1,1-2.91,6,6,0,0,1,2.76-2,11.83,11.83,0,0,1,4.29-.71,16.67,16.67,0,0,1,3.65.41,9.87,9.87,0,0,1,3,1.11l-1.67,3.56a10.1,10.1,0,0,0-5-1.28,5.08,5.08,0,0,0-2.41.45,1.32,1.32,0,0,0-.8,1.16,1.14,1.14,0,0,0,.87,1.12,15.56,15.56,0,0,0,2.76.61,29.62,29.62,0,0,1,3.47.76,5.11,5.11,0,0,1,2.35,1.46,4.17,4.17,0,0,1,1,3,4.54,4.54,0,0,1-1,2.86,6.17,6.17,0,0,1-2.81,1.94,12.57,12.57,0,0,1-4.39.69A16.53,16.53,0,0,1,210.28,34.36Z"/></g></g></svg>